<?xml version="1.0" encoding="UTF-8"?>
<svg xmlns="http://www.w3.org/2000/svg" xmlns:xlink="http://www.w3.org/1999/xlink" width="16pt" height="21pt" viewBox="0 0 16 21" version="1.1">
<g id="surface1">
<path style=" stroke:none;fill-rule:nonzero;fill:rgb(0%,0%,0%);fill-opacity:1;" d="M 9.332031 5.578125 L 9.332031 0 L 1 0 C 0.445312 0 0 0.4375 0 0.984375 L 0 20.015625 C 0 20.5625 0.445312 21 1 21 L 15 21 C 15.554688 21 16 20.5625 16 20.015625 L 16 6.5625 L 10.332031 6.5625 C 9.785156 6.5625 9.332031 6.121094 9.332031 5.578125 Z M 16 5 L 16 5.25 L 10.667969 5.25 L 10.667969 0 L 10.921875 0 C 11.1875 0 11.441406 0.101562 11.628906 0.289062 L 15.707031 4.304688 C 15.894531 4.492188 16 4.742188 16 5 Z M 16 5 "/>
</g>
</svg>
