<svg xmlns:dc="http://purl.org/dc/elements/1.1/" xmlns:cc="http://creativecommons.org/ns#" xmlns:rdf="http://www.w3.org/1999/02/22-rdf-syntax-ns#" xmlns:svg="http://www.w3.org/2000/svg" xmlns="http://www.w3.org/2000/svg" xmlns:sodipodi="http://sodipodi.sourceforge.net/DTD/sodipodi-0.dtd" xmlns:inkscape="http://www.inkscape.org/namespaces/inkscape" viewBox="0 0 1090 1023.4374750000001" version="1.1" x="0px" y="0px"><g transform="translate(708.7495,-3107.005)"><path style="" d="m -708.7495,3516.38 0,-409.375 235,0 235,0 0,120.625 0,120.625 105.625,0 105.625,0 0,288.75 0,288.75 -340.625,0 -340.625,0 0,-409.375 z m 792.5,-0.625 0,-178.75 102.5,0 102.5,0 0,52.5 0,52.5 46.25,0 46.25,0 0,126.25 0,126.25 -148.75,0 -148.75,0 0,-178.75 z m 225,-135.9028 c 0,-41.2821 0.0485,-42.1018 2.34755,-39.6875 3.98255,4.1823 62.39166,73.1062 67.50124,79.6528 1.6173,2.0722 -0.17932,2.1875 -34.07074,2.1875 l -35.77805,0 0,-42.1528 z m -502.5,-173.5764 c 0,-53.3385 0.4798,-96.7916 1.06623,-96.5625 1.03665,0.4051 161.30743,189.0535 163.15581,192.0442 0.71541,1.1576 -17.8194,1.4975 -81.64826,1.4975 l -82.57378,0 0,-96.9792 z" fill="#000000"/></g><text x="0" y="833.74998" fill="#000000" font-size="5px" font-weight="bold" font-family="'Helvetica Neue', Helvetica, Arial-Unicode, Arial, Sans-serif">Created by iconeu</text><text x="0" y="838.74998" fill="#000000" font-size="5px" font-weight="bold" font-family="'Helvetica Neue', Helvetica, Arial-Unicode, Arial, Sans-serif">from the Noun Project</text></svg>